<?xml version="1.0" encoding="UTF-8" standalone="no"?>
<!DOCTYPE svg PUBLIC "-//W3C//DTD SVG 1.1//EN"
 "http://www.w3.org/Graphics/SVG/1.1/DTD/svg11.dtd">
<!-- Generated by graphviz version 2.47.3 (20210619.1520)
 -->
<!-- Title: dependencies Pages: 1 -->
<svg width="983pt" height="174pt"
 viewBox="0.00 0.00 983.00 173.80" xmlns="http://www.w3.org/2000/svg" xmlns:xlink="http://www.w3.org/1999/xlink">
<g id="graph0" class="graph" transform="scale(1 1) rotate(0) translate(4 169.8)">
<title>dependencies</title>
<polygon fill="white" stroke="transparent" points="-4,4 -4,-169.8 979,-169.8 979,4 -4,4"/>
<text text-anchor="middle" x="487.5" y="-8.2" font-family="sans-serif" font-size="14.00">dependencies</text>
<g id="clust1" class="cluster">
<title>cluster_VaccineConfigModule</title>
<polygon fill="none" stroke="black" stroke-dasharray="1,5" points="8,-32.8 8,-157.8 967,-157.8 967,-32.8 8,-32.8"/>
</g>
<g id="clust2" class="cluster">
<title>cluster_VaccineConfigModule_declarations</title>
<polygon fill="none" stroke="black" points="474,-40.8 474,-92.8 959,-92.8 959,-40.8 474,-40.8"/>
</g>
<g id="clust6" class="cluster">
<title>cluster_VaccineConfigModule_imports</title>
<polygon fill="none" stroke="black" points="16,-40.8 16,-92.8 466,-92.8 466,-40.8 16,-40.8"/>
</g>
<!-- VaccineComponent -->
<g id="node1" class="node">
<title>VaccineComponent</title>
<polygon fill="#ffffb3" stroke="black" points="950.69,-84.8 823.31,-84.8 823.31,-48.8 950.69,-48.8 950.69,-84.8"/>
<text text-anchor="middle" x="887" y="-62.6" font-family="Times,serif" font-size="14.00">VaccineComponent</text>
</g>
<!-- VaccineConfigModule -->
<g id="node4" class="node">
<title>VaccineConfigModule</title>
<polygon fill="#8dd3c7" stroke="black" points="560.29,-149.8 557.29,-153.8 536.29,-153.8 533.29,-149.8 415.71,-149.8 415.71,-113.8 560.29,-113.8 560.29,-149.8"/>
<text text-anchor="middle" x="488" y="-127.6" font-family="Times,serif" font-size="14.00">VaccineConfigModule</text>
</g>
<!-- VaccineComponent&#45;&gt;VaccineConfigModule -->
<g id="edge1" class="edge">
<title>VaccineComponent&#45;&gt;VaccineConfigModule</title>
<path fill="none" stroke="black" d="M887,-85.08C887,-106.12 887,-137.8 887,-137.8 887,-137.8 570.26,-137.8 570.26,-137.8"/>
<polygon fill="black" stroke="black" points="570.26,-134.3 560.26,-137.8 570.26,-141.3 570.26,-134.3"/>
</g>
<!-- VaccineFormComponent -->
<g id="node2" class="node">
<title>VaccineFormComponent</title>
<polygon fill="#ffffb3" stroke="black" points="805.52,-84.8 648.48,-84.8 648.48,-48.8 805.52,-48.8 805.52,-84.8"/>
<text text-anchor="middle" x="727" y="-62.6" font-family="Times,serif" font-size="14.00">VaccineFormComponent</text>
</g>
<!-- VaccineFormComponent&#45;&gt;VaccineConfigModule -->
<g id="edge2" class="edge">
<title>VaccineFormComponent&#45;&gt;VaccineConfigModule</title>
<path fill="none" stroke="black" d="M727,-84.82C727,-102.17 727,-125.8 727,-125.8 727,-125.8 570.36,-125.8 570.36,-125.8"/>
<polygon fill="black" stroke="black" points="570.36,-122.3 560.36,-125.8 570.36,-129.3 570.36,-122.3"/>
</g>
<!-- VaccineListComponent -->
<g id="node3" class="node">
<title>VaccineListComponent</title>
<polygon fill="#ffffb3" stroke="black" points="630.47,-84.8 481.53,-84.8 481.53,-48.8 630.47,-48.8 630.47,-84.8"/>
<text text-anchor="middle" x="556" y="-62.6" font-family="Times,serif" font-size="14.00">VaccineListComponent</text>
</g>
<!-- VaccineListComponent&#45;&gt;VaccineConfigModule -->
<g id="edge3" class="edge">
<title>VaccineListComponent&#45;&gt;VaccineConfigModule</title>
<path fill="none" stroke="black" d="M520.83,-84.91C520.83,-84.91 520.83,-103.79 520.83,-103.79"/>
<polygon fill="black" stroke="black" points="517.33,-103.79 520.83,-113.79 524.33,-103.79 517.33,-103.79"/>
</g>
<!-- UiModule -->
<g id="node5" class="node">
<title>UiModule</title>
<polygon fill="#8dd3c7" stroke="black" points="457.55,-84.8 454.55,-88.8 433.55,-88.8 430.55,-84.8 384.45,-84.8 384.45,-48.8 457.55,-48.8 457.55,-84.8"/>
<text text-anchor="middle" x="421" y="-62.6" font-family="Times,serif" font-size="14.00">UiModule</text>
</g>
<!-- UiModule&#45;&gt;VaccineConfigModule -->
<g id="edge4" class="edge">
<title>UiModule&#45;&gt;VaccineConfigModule</title>
<path fill="none" stroke="black" d="M436.81,-84.91C436.81,-84.91 436.81,-103.79 436.81,-103.79"/>
<polygon fill="black" stroke="black" points="433.31,-103.79 436.81,-113.79 440.31,-103.79 433.31,-103.79"/>
</g>
<!-- VaccineConfigStoreModule -->
<g id="node6" class="node">
<title>VaccineConfigStoreModule</title>
<polygon fill="#8dd3c7" stroke="black" points="365.84,-84.8 362.84,-88.8 341.84,-88.8 338.84,-84.8 192.16,-84.8 192.16,-48.8 365.84,-48.8 365.84,-84.8"/>
<text text-anchor="middle" x="279" y="-62.6" font-family="Times,serif" font-size="14.00">VaccineConfigStoreModule</text>
</g>
<!-- VaccineConfigStoreModule&#45;&gt;VaccineConfigModule -->
<g id="edge5" class="edge">
<title>VaccineConfigStoreModule&#45;&gt;VaccineConfigModule</title>
<path fill="none" stroke="black" d="M279,-84.82C279,-102.17 279,-125.8 279,-125.8 279,-125.8 405.78,-125.8 405.78,-125.8"/>
<polygon fill="black" stroke="black" points="405.78,-129.3 415.78,-125.8 405.78,-122.3 405.78,-129.3"/>
</g>
<!-- VaccineRoutingModule -->
<g id="node7" class="node">
<title>VaccineRoutingModule</title>
<polygon fill="#8dd3c7" stroke="black" points="174.02,-84.8 171.02,-88.8 150.02,-88.8 147.02,-84.8 23.98,-84.8 23.98,-48.8 174.02,-48.8 174.02,-84.8"/>
<text text-anchor="middle" x="99" y="-62.6" font-family="Times,serif" font-size="14.00">VaccineRoutingModule</text>
</g>
<!-- VaccineRoutingModule&#45;&gt;VaccineConfigModule -->
<g id="edge6" class="edge">
<title>VaccineRoutingModule&#45;&gt;VaccineConfigModule</title>
<path fill="none" stroke="black" d="M99,-85.08C99,-106.12 99,-137.8 99,-137.8 99,-137.8 405.74,-137.8 405.74,-137.8"/>
<polygon fill="black" stroke="black" points="405.74,-141.3 415.74,-137.8 405.74,-134.3 405.74,-141.3"/>
</g>
</g>
</svg>
