<?xml version="1.0" encoding="UTF-8" standalone="no"?>
<!DOCTYPE svg PUBLIC "-//W3C//DTD SVG 1.1//EN"
 "http://www.w3.org/Graphics/SVG/1.1/DTD/svg11.dtd">
<!-- Generated by graphviz version 2.47.3 (20210619.1520)
 -->
<!-- Title: dependencies Pages: 1 -->
<svg width="1630pt" height="174pt"
 viewBox="0.00 0.00 1630.00 173.80" xmlns="http://www.w3.org/2000/svg" xmlns:xlink="http://www.w3.org/1999/xlink">
<g id="graph0" class="graph" transform="scale(1 1) rotate(0) translate(4 169.8)">
<title>dependencies</title>
<polygon fill="white" stroke="transparent" points="-4,4 -4,-169.8 1626,-169.8 1626,4 -4,4"/>
<text text-anchor="middle" x="811" y="-8.2" font-family="sans-serif" font-size="14.00">dependencies</text>
<g id="clust1" class="cluster">
<title>cluster_RefrigeratorModule</title>
<polygon fill="none" stroke="black" stroke-dasharray="1,5" points="8,-32.8 8,-157.8 1614,-157.8 1614,-32.8 8,-32.8"/>
</g>
<g id="clust2" class="cluster">
<title>cluster_RefrigeratorModule_declarations</title>
<polygon fill="none" stroke="black" points="643,-40.8 643,-92.8 1606,-92.8 1606,-40.8 643,-40.8"/>
</g>
<g id="clust8" class="cluster">
<title>cluster_RefrigeratorModule_imports</title>
<polygon fill="none" stroke="black" points="16,-40.8 16,-92.8 635,-92.8 635,-40.8 16,-40.8"/>
</g>
<!-- RefrigeratorCretateComponent -->
<g id="node1" class="node">
<title>RefrigeratorCretateComponent</title>
<polygon fill="#ffffb3" stroke="black" points="1598.16,-84.8 1407.84,-84.8 1407.84,-48.8 1598.16,-48.8 1598.16,-84.8"/>
<text text-anchor="middle" x="1503" y="-62.6" font-family="Times,serif" font-size="14.00">RefrigeratorCretateComponent</text>
</g>
<!-- RefrigeratorModule -->
<g id="node6" class="node">
<title>RefrigeratorModule</title>
<polygon fill="#8dd3c7" stroke="black" points="794.95,-149.8 791.95,-153.8 770.95,-153.8 767.95,-149.8 667.05,-149.8 667.05,-113.8 794.95,-113.8 794.95,-149.8"/>
<text text-anchor="middle" x="731" y="-127.6" font-family="Times,serif" font-size="14.00">RefrigeratorModule</text>
</g>
<!-- RefrigeratorCretateComponent&#45;&gt;RefrigeratorModule -->
<g id="edge1" class="edge">
<title>RefrigeratorCretateComponent&#45;&gt;RefrigeratorModule</title>
<path fill="none" stroke="black" d="M1503,-84.81C1503,-107.29 1503,-142.8 1503,-142.8 1503,-142.8 805.16,-142.8 805.16,-142.8"/>
<polygon fill="black" stroke="black" points="805.16,-139.3 795.16,-142.8 805.16,-146.3 805.16,-139.3"/>
</g>
<!-- RefrigeratorEditComponent -->
<g id="node2" class="node">
<title>RefrigeratorEditComponent</title>
<polygon fill="#ffffb3" stroke="black" points="1389.57,-84.8 1216.43,-84.8 1216.43,-48.8 1389.57,-48.8 1389.57,-84.8"/>
<text text-anchor="middle" x="1303" y="-62.6" font-family="Times,serif" font-size="14.00">RefrigeratorEditComponent</text>
</g>
<!-- RefrigeratorEditComponent&#45;&gt;RefrigeratorModule -->
<g id="edge2" class="edge">
<title>RefrigeratorEditComponent&#45;&gt;RefrigeratorModule</title>
<path fill="none" stroke="black" d="M1303,-84.93C1303,-105.37 1303,-135.8 1303,-135.8 1303,-135.8 805.23,-135.8 805.23,-135.8"/>
<polygon fill="black" stroke="black" points="805.23,-132.3 795.23,-135.8 805.23,-139.3 805.23,-132.3"/>
</g>
<!-- RefrigeratorFormComponent -->
<g id="node3" class="node">
<title>RefrigeratorFormComponent</title>
<polygon fill="#ffffb3" stroke="black" points="1198.07,-84.8 1017.93,-84.8 1017.93,-48.8 1198.07,-48.8 1198.07,-84.8"/>
<text text-anchor="middle" x="1108" y="-62.6" font-family="Times,serif" font-size="14.00">RefrigeratorFormComponent</text>
</g>
<!-- RefrigeratorFormComponent&#45;&gt;RefrigeratorModule -->
<g id="edge3" class="edge">
<title>RefrigeratorFormComponent&#45;&gt;RefrigeratorModule</title>
<path fill="none" stroke="black" d="M1108,-85.07C1108,-103.36 1108,-128.8 1108,-128.8 1108,-128.8 805.38,-128.8 805.38,-128.8"/>
<polygon fill="black" stroke="black" points="805.38,-125.3 795.38,-128.8 805.38,-132.3 805.38,-125.3"/>
</g>
<!-- RefrigeratorListComponent -->
<g id="node4" class="node">
<title>RefrigeratorListComponent</title>
<polygon fill="#ffffb3" stroke="black" points="999.52,-84.8 828.48,-84.8 828.48,-48.8 999.52,-48.8 999.52,-84.8"/>
<text text-anchor="middle" x="914" y="-62.6" font-family="Times,serif" font-size="14.00">RefrigeratorListComponent</text>
</g>
<!-- RefrigeratorListComponent&#45;&gt;RefrigeratorModule -->
<g id="edge4" class="edge">
<title>RefrigeratorListComponent&#45;&gt;RefrigeratorModule</title>
<path fill="none" stroke="black" d="M914,-84.81C914,-100.85 914,-121.8 914,-121.8 914,-121.8 805,-121.8 805,-121.8"/>
<polygon fill="black" stroke="black" points="805,-118.3 795,-121.8 805,-125.3 805,-118.3"/>
</g>
<!-- VaccineTableComponent -->
<g id="node5" class="node">
<title>VaccineTableComponent</title>
<polygon fill="#ffffb3" stroke="black" points="810.56,-84.8 651.44,-84.8 651.44,-48.8 810.56,-48.8 810.56,-84.8"/>
<text text-anchor="middle" x="731" y="-62.6" font-family="Times,serif" font-size="14.00">VaccineTableComponent</text>
</g>
<!-- VaccineTableComponent&#45;&gt;RefrigeratorModule -->
<g id="edge5" class="edge">
<title>VaccineTableComponent&#45;&gt;RefrigeratorModule</title>
<path fill="none" stroke="black" d="M731,-84.91C731,-84.91 731,-103.79 731,-103.79"/>
<polygon fill="black" stroke="black" points="727.5,-103.79 731,-113.79 734.5,-103.79 727.5,-103.79"/>
</g>
<!-- DeviceStoreModule -->
<g id="node7" class="node">
<title>DeviceStoreModule</title>
<polygon fill="#8dd3c7" stroke="black" points="627.24,-84.8 624.24,-88.8 603.24,-88.8 600.24,-84.8 498.76,-84.8 498.76,-48.8 627.24,-48.8 627.24,-84.8"/>
<text text-anchor="middle" x="563" y="-62.6" font-family="Times,serif" font-size="14.00">DeviceStoreModule</text>
</g>
<!-- DeviceStoreModule&#45;&gt;RefrigeratorModule -->
<g id="edge6" class="edge">
<title>DeviceStoreModule&#45;&gt;RefrigeratorModule</title>
<path fill="none" stroke="black" d="M563,-84.81C563,-100.85 563,-121.8 563,-121.8 563,-121.8 657.01,-121.8 657.01,-121.8"/>
<polygon fill="black" stroke="black" points="657.01,-125.3 667.01,-121.8 657.01,-118.3 657.01,-125.3"/>
</g>
<!-- RefrigeratorRoutingModule -->
<g id="node8" class="node">
<title>RefrigeratorRoutingModule</title>
<polygon fill="#8dd3c7" stroke="black" points="480.57,-84.8 477.57,-88.8 456.57,-88.8 453.57,-84.8 307.43,-84.8 307.43,-48.8 480.57,-48.8 480.57,-84.8"/>
<text text-anchor="middle" x="394" y="-62.6" font-family="Times,serif" font-size="14.00">RefrigeratorRoutingModule</text>
</g>
<!-- RefrigeratorRoutingModule&#45;&gt;RefrigeratorModule -->
<g id="edge7" class="edge">
<title>RefrigeratorRoutingModule&#45;&gt;RefrigeratorModule</title>
<path fill="none" stroke="black" d="M394,-85.07C394,-103.36 394,-128.8 394,-128.8 394,-128.8 656.82,-128.8 656.82,-128.8"/>
<polygon fill="black" stroke="black" points="656.82,-132.3 666.82,-128.8 656.82,-125.3 656.82,-132.3"/>
</g>
<!-- UiModule -->
<g id="node9" class="node">
<title>UiModule</title>
<polygon fill="#8dd3c7" stroke="black" points="289.55,-84.8 286.55,-88.8 265.55,-88.8 262.55,-84.8 216.45,-84.8 216.45,-48.8 289.55,-48.8 289.55,-84.8"/>
<text text-anchor="middle" x="253" y="-62.6" font-family="Times,serif" font-size="14.00">UiModule</text>
</g>
<!-- UiModule&#45;&gt;RefrigeratorModule -->
<g id="edge8" class="edge">
<title>UiModule&#45;&gt;RefrigeratorModule</title>
<path fill="none" stroke="black" d="M253,-84.93C253,-105.37 253,-135.8 253,-135.8 253,-135.8 657.03,-135.8 657.03,-135.8"/>
<polygon fill="black" stroke="black" points="657.03,-139.3 667.03,-135.8 657.03,-132.3 657.03,-139.3"/>
</g>
<!-- VaccineConfigStoreModule -->
<g id="node10" class="node">
<title>VaccineConfigStoreModule</title>
<polygon fill="#8dd3c7" stroke="black" points="197.84,-84.8 194.84,-88.8 173.84,-88.8 170.84,-84.8 24.16,-84.8 24.16,-48.8 197.84,-48.8 197.84,-84.8"/>
<text text-anchor="middle" x="111" y="-62.6" font-family="Times,serif" font-size="14.00">VaccineConfigStoreModule</text>
</g>
<!-- VaccineConfigStoreModule&#45;&gt;RefrigeratorModule -->
<g id="edge9" class="edge">
<title>VaccineConfigStoreModule&#45;&gt;RefrigeratorModule</title>
<path fill="none" stroke="black" d="M111,-84.81C111,-107.29 111,-142.8 111,-142.8 111,-142.8 656.98,-142.8 656.98,-142.8"/>
<polygon fill="black" stroke="black" points="656.98,-146.3 666.98,-142.8 656.98,-139.3 656.98,-146.3"/>
</g>
</g>
</svg>
