<?xml version="1.0" encoding="UTF-8" standalone="no"?>
<!DOCTYPE svg PUBLIC "-//W3C//DTD SVG 1.1//EN"
 "http://www.w3.org/Graphics/SVG/1.1/DTD/svg11.dtd">
<!-- Generated by graphviz version 2.47.3 (20210619.1520)
 -->
<!-- Title: dependencies Pages: 1 -->
<svg width="366pt" height="247pt"
 viewBox="0.00 0.00 366.00 246.80" xmlns="http://www.w3.org/2000/svg" xmlns:xlink="http://www.w3.org/1999/xlink">
<g id="graph0" class="graph" transform="scale(1 1) rotate(0) translate(4 242.8)">
<title>dependencies</title>
<polygon fill="white" stroke="transparent" points="-4,4 -4,-242.8 362,-242.8 362,4 -4,4"/>
<text text-anchor="middle" x="179" y="-8.2" font-family="sans-serif" font-size="14.00">dependencies</text>
<g id="clust1" class="cluster">
<title>cluster_UiModule</title>
<polygon fill="none" stroke="black" stroke-dasharray="1,5" points="8,-32.8 8,-230.8 350,-230.8 350,-32.8 8,-32.8"/>
</g>
<g id="clust2" class="cluster">
<title>cluster_UiModule_declarations</title>
<polygon fill="none" stroke="black" points="20,-40.8 20,-92.8 339,-92.8 339,-40.8 20,-40.8"/>
</g>
<g id="clust6" class="cluster">
<title>cluster_UiModule_exports</title>
<polygon fill="none" stroke="black" points="16,-170.8 16,-222.8 342,-222.8 342,-170.8 16,-170.8"/>
</g>
<!-- DynamicTableComponent -->
<g id="node1" class="node">
<title>DynamicTableComponent</title>
<polygon fill="#ffffb3" stroke="black" points="331.02,-84.8 166.98,-84.8 166.98,-48.8 331.02,-48.8 331.02,-84.8"/>
<text text-anchor="middle" x="249" y="-62.6" font-family="Times,serif" font-size="14.00">DynamicTableComponent</text>
</g>
<!-- UiModule -->
<g id="node3" class="node">
<title>UiModule</title>
<polygon fill="#8dd3c7" stroke="black" points="125.55,-149.8 122.55,-153.8 101.55,-153.8 98.55,-149.8 52.45,-149.8 52.45,-113.8 125.55,-113.8 125.55,-149.8"/>
<text text-anchor="middle" x="89" y="-127.6" font-family="Times,serif" font-size="14.00">UiModule</text>
</g>
<!-- DynamicTableComponent&#45;&gt;UiModule -->
<g id="edge1" class="edge">
<title>DynamicTableComponent&#45;&gt;UiModule</title>
<path fill="none" stroke="black" d="M276.42,-84.82C276.42,-102.17 276.42,-125.8 276.42,-125.8 276.42,-125.8 135.58,-125.8 135.58,-125.8"/>
<polygon fill="black" stroke="black" points="135.58,-122.3 125.58,-125.8 135.58,-129.3 135.58,-122.3"/>
</g>
<!-- LayoutComponent -->
<g id="node2" class="node">
<title>LayoutComponent</title>
<polygon fill="#ffffb3" stroke="black" points="148.49,-84.8 27.51,-84.8 27.51,-48.8 148.49,-48.8 148.49,-84.8"/>
<text text-anchor="middle" x="88" y="-62.6" font-family="Times,serif" font-size="14.00">LayoutComponent</text>
</g>
<!-- LayoutComponent&#45;&gt;UiModule -->
<g id="edge2" class="edge">
<title>LayoutComponent&#45;&gt;UiModule</title>
<path fill="none" stroke="black" d="M89,-84.91C89,-84.91 89,-103.79 89,-103.79"/>
<polygon fill="black" stroke="black" points="85.5,-103.79 89,-113.79 92.5,-103.79 85.5,-103.79"/>
</g>
<!-- DynamicTableComponent  -->
<g id="node4" class="node">
<title>DynamicTableComponent </title>
<polygon fill="#fb8072" stroke="black" points="334.02,-214.8 165.98,-214.8 165.98,-178.8 334.02,-178.8 334.02,-214.8"/>
<text text-anchor="middle" x="250" y="-192.6" font-family="Times,serif" font-size="14.00">DynamicTableComponent </text>
</g>
<!-- UiModule&#45;&gt;DynamicTableComponent  -->
<g id="edge3" class="edge">
<title>UiModule&#45;&gt;DynamicTableComponent </title>
<path fill="none" stroke="black" stroke-dasharray="5,2" d="M125.58,-137.8C164.82,-137.8 221.58,-137.8 221.58,-137.8 221.58,-137.8 221.58,-168.78 221.58,-168.78"/>
<polygon fill="black" stroke="black" points="218.08,-168.78 221.58,-178.78 225.08,-168.78 218.08,-168.78"/>
</g>
<!-- LayoutComponent  -->
<g id="node5" class="node">
<title>LayoutComponent </title>
<polygon fill="#fb8072" stroke="black" points="148.49,-214.8 23.51,-214.8 23.51,-178.8 148.49,-178.8 148.49,-214.8"/>
<text text-anchor="middle" x="86" y="-192.6" font-family="Times,serif" font-size="14.00">LayoutComponent </text>
</g>
<!-- UiModule&#45;&gt;LayoutComponent  -->
<g id="edge4" class="edge">
<title>UiModule&#45;&gt;LayoutComponent </title>
<path fill="none" stroke="black" stroke-dasharray="5,2" d="M89,-149.91C89,-149.91 89,-168.79 89,-168.79"/>
<polygon fill="black" stroke="black" points="85.5,-168.79 89,-178.79 92.5,-168.79 85.5,-168.79"/>
</g>
</g>
</svg>
