<?xml version="1.0" encoding="UTF-8" standalone="no"?>
<!DOCTYPE svg PUBLIC "-//W3C//DTD SVG 1.1//EN"
 "http://www.w3.org/Graphics/SVG/1.1/DTD/svg11.dtd">
<!-- Generated by graphviz version 2.47.3 (20210619.1520)
 -->
<!-- Title: dependencies Pages: 1 -->
<svg width="1095pt" height="174pt"
 viewBox="0.00 0.00 1095.00 173.80" xmlns="http://www.w3.org/2000/svg" xmlns:xlink="http://www.w3.org/1999/xlink">
<g id="graph0" class="graph" transform="scale(1 1) rotate(0) translate(4 169.8)">
<title>dependencies</title>
<polygon fill="white" stroke="transparent" points="-4,4 -4,-169.8 1091,-169.8 1091,4 -4,4"/>
<text text-anchor="middle" x="543.5" y="-8.2" font-family="sans-serif" font-size="14.00">dependencies</text>
<g id="clust1" class="cluster">
<title>cluster_DeviceModule</title>
<polygon fill="none" stroke="black" stroke-dasharray="1,5" points="8,-32.8 8,-157.8 1079,-157.8 1079,-32.8 8,-32.8"/>
</g>
<g id="clust7" class="cluster">
<title>cluster_DeviceModule_imports</title>
<polygon fill="none" stroke="black" points="672,-40.8 672,-92.8 1071,-92.8 1071,-40.8 672,-40.8"/>
</g>
<g id="clust2" class="cluster">
<title>cluster_DeviceModule_declarations</title>
<polygon fill="none" stroke="black" points="16,-40.8 16,-92.8 664,-92.8 664,-40.8 16,-40.8"/>
</g>
<!-- DeviceComponent -->
<g id="node1" class="node">
<title>DeviceComponent</title>
<polygon fill="#ffffb3" stroke="black" points="656.47,-84.8 535.53,-84.8 535.53,-48.8 656.47,-48.8 656.47,-84.8"/>
<text text-anchor="middle" x="596" y="-62.6" font-family="Times,serif" font-size="14.00">DeviceComponent</text>
</g>
<!-- DeviceModule -->
<g id="node5" class="node">
<title>DeviceModule</title>
<polygon fill="#8dd3c7" stroke="black" points="645.69,-149.8 642.69,-153.8 621.69,-153.8 618.69,-149.8 546.31,-149.8 546.31,-113.8 645.69,-113.8 645.69,-149.8"/>
<text text-anchor="middle" x="596" y="-127.6" font-family="Times,serif" font-size="14.00">DeviceModule</text>
</g>
<!-- DeviceComponent&#45;&gt;DeviceModule -->
<g id="edge1" class="edge">
<title>DeviceComponent&#45;&gt;DeviceModule</title>
<path fill="none" stroke="black" d="M596,-84.91C596,-84.91 596,-103.79 596,-103.79"/>
<polygon fill="black" stroke="black" points="592.5,-103.79 596,-113.79 599.5,-103.79 592.5,-103.79"/>
</g>
<!-- DeviceFormComponent -->
<g id="node2" class="node">
<title>DeviceFormComponent</title>
<polygon fill="#ffffb3" stroke="black" points="517.81,-84.8 366.19,-84.8 366.19,-48.8 517.81,-48.8 517.81,-84.8"/>
<text text-anchor="middle" x="442" y="-62.6" font-family="Times,serif" font-size="14.00">DeviceFormComponent</text>
</g>
<!-- DeviceFormComponent&#45;&gt;DeviceModule -->
<g id="edge2" class="edge">
<title>DeviceFormComponent&#45;&gt;DeviceModule</title>
<path fill="none" stroke="black" d="M442,-84.83C442,-101.2 442,-122.8 442,-122.8 442,-122.8 536,-122.8 536,-122.8"/>
<polygon fill="black" stroke="black" points="536,-126.3 546,-122.8 536,-119.3 536,-126.3"/>
</g>
<!-- DeviceListComponent -->
<g id="node3" class="node">
<title>DeviceListComponent</title>
<polygon fill="#ffffb3" stroke="black" points="348.25,-84.8 205.75,-84.8 205.75,-48.8 348.25,-48.8 348.25,-84.8"/>
<text text-anchor="middle" x="277" y="-62.6" font-family="Times,serif" font-size="14.00">DeviceListComponent</text>
</g>
<!-- DeviceListComponent&#45;&gt;DeviceModule -->
<g id="edge3" class="edge">
<title>DeviceListComponent&#45;&gt;DeviceModule</title>
<path fill="none" stroke="black" d="M277,-84.91C277,-104.14 277,-131.8 277,-131.8 277,-131.8 536.16,-131.8 536.16,-131.8"/>
<polygon fill="black" stroke="black" points="536.16,-135.3 546.16,-131.8 536.16,-128.3 536.16,-135.3"/>
</g>
<!-- MetricsDeviceComponent -->
<g id="node4" class="node">
<title>MetricsDeviceComponent</title>
<polygon fill="#ffffb3" stroke="black" points="187.73,-84.8 24.27,-84.8 24.27,-48.8 187.73,-48.8 187.73,-84.8"/>
<text text-anchor="middle" x="106" y="-62.6" font-family="Times,serif" font-size="14.00">MetricsDeviceComponent</text>
</g>
<!-- MetricsDeviceComponent&#45;&gt;DeviceModule -->
<g id="edge4" class="edge">
<title>MetricsDeviceComponent&#45;&gt;DeviceModule</title>
<path fill="none" stroke="black" d="M106,-85.09C106,-107.01 106,-140.8 106,-140.8 106,-140.8 536.32,-140.8 536.32,-140.8"/>
<polygon fill="black" stroke="black" points="536.32,-144.3 546.32,-140.8 536.32,-137.3 536.32,-144.3"/>
</g>
<!-- DeviceRoutingModule -->
<g id="node6" class="node">
<title>DeviceRoutingModule</title>
<polygon fill="#8dd3c7" stroke="black" points="1063.31,-84.8 1060.31,-88.8 1039.31,-88.8 1036.31,-84.8 918.69,-84.8 918.69,-48.8 1063.31,-48.8 1063.31,-84.8"/>
<text text-anchor="middle" x="991" y="-62.6" font-family="Times,serif" font-size="14.00">DeviceRoutingModule</text>
</g>
<!-- DeviceRoutingModule&#45;&gt;DeviceModule -->
<g id="edge5" class="edge">
<title>DeviceRoutingModule&#45;&gt;DeviceModule</title>
<path fill="none" stroke="black" d="M991,-85.09C991,-107.01 991,-140.8 991,-140.8 991,-140.8 655.63,-140.8 655.63,-140.8"/>
<polygon fill="black" stroke="black" points="655.63,-137.3 645.63,-140.8 655.63,-144.3 655.63,-137.3"/>
</g>
<!-- DeviceStoreModule -->
<g id="node7" class="node">
<title>DeviceStoreModule</title>
<polygon fill="#8dd3c7" stroke="black" points="900.24,-84.8 897.24,-88.8 876.24,-88.8 873.24,-84.8 771.76,-84.8 771.76,-48.8 900.24,-48.8 900.24,-84.8"/>
<text text-anchor="middle" x="836" y="-62.6" font-family="Times,serif" font-size="14.00">DeviceStoreModule</text>
</g>
<!-- DeviceStoreModule&#45;&gt;DeviceModule -->
<g id="edge6" class="edge">
<title>DeviceStoreModule&#45;&gt;DeviceModule</title>
<path fill="none" stroke="black" d="M836,-84.91C836,-104.14 836,-131.8 836,-131.8 836,-131.8 655.73,-131.8 655.73,-131.8"/>
<polygon fill="black" stroke="black" points="655.73,-128.3 645.73,-131.8 655.73,-135.3 655.73,-128.3"/>
</g>
<!-- UiModule -->
<g id="node8" class="node">
<title>UiModule</title>
<polygon fill="#8dd3c7" stroke="black" points="753.55,-84.8 750.55,-88.8 729.55,-88.8 726.55,-84.8 680.45,-84.8 680.45,-48.8 753.55,-48.8 753.55,-84.8"/>
<text text-anchor="middle" x="717" y="-62.6" font-family="Times,serif" font-size="14.00">UiModule</text>
</g>
<!-- UiModule&#45;&gt;DeviceModule -->
<g id="edge7" class="edge">
<title>UiModule&#45;&gt;DeviceModule</title>
<path fill="none" stroke="black" d="M717,-84.83C717,-101.2 717,-122.8 717,-122.8 717,-122.8 655.91,-122.8 655.91,-122.8"/>
<polygon fill="black" stroke="black" points="655.91,-119.3 645.91,-122.8 655.91,-126.3 655.91,-119.3"/>
</g>
</g>
</svg>
