<?xml version="1.0" encoding="UTF-8" standalone="no"?>
<!DOCTYPE svg PUBLIC "-//W3C//DTD SVG 1.1//EN"
 "http://www.w3.org/Graphics/SVG/1.1/DTD/svg11.dtd">
<!-- Generated by graphviz version 2.47.3 (20210619.1520)
 -->
<!-- Title: dependencies Pages: 1 -->
<svg width="416pt" height="174pt"
 viewBox="0.00 0.00 416.00 173.80" xmlns="http://www.w3.org/2000/svg" xmlns:xlink="http://www.w3.org/1999/xlink">
<g id="graph0" class="graph" transform="scale(1 1) rotate(0) translate(4 169.8)">
<title>dependencies</title>
<polygon fill="white" stroke="transparent" points="-4,4 -4,-169.8 412,-169.8 412,4 -4,4"/>
<text text-anchor="middle" x="204" y="-8.2" font-family="sans-serif" font-size="14.00">dependencies</text>
<g id="clust1" class="cluster">
<title>cluster_MainModule</title>
<polygon fill="none" stroke="black" stroke-dasharray="1,5" points="8,-32.8 8,-157.8 400,-157.8 400,-32.8 8,-32.8"/>
</g>
<g id="clust2" class="cluster">
<title>cluster_MainModule_declarations</title>
<polygon fill="none" stroke="black" points="266,-40.8 266,-92.8 392,-92.8 392,-40.8 266,-40.8"/>
</g>
<g id="clust4" class="cluster">
<title>cluster_MainModule_imports</title>
<polygon fill="none" stroke="black" points="16,-40.8 16,-92.8 258,-92.8 258,-40.8 16,-40.8"/>
</g>
<!-- MainComponent -->
<g id="node1" class="node">
<title>MainComponent</title>
<polygon fill="#ffffb3" stroke="black" points="384.38,-84.8 273.62,-84.8 273.62,-48.8 384.38,-48.8 384.38,-84.8"/>
<text text-anchor="middle" x="329" y="-62.6" font-family="Times,serif" font-size="14.00">MainComponent</text>
</g>
<!-- MainModule -->
<g id="node2" class="node">
<title>MainModule</title>
<polygon fill="#8dd3c7" stroke="black" points="227.6,-149.8 224.6,-153.8 203.6,-153.8 200.6,-149.8 138.4,-149.8 138.4,-113.8 227.6,-113.8 227.6,-149.8"/>
<text text-anchor="middle" x="183" y="-127.6" font-family="Times,serif" font-size="14.00">MainModule</text>
</g>
<!-- MainComponent&#45;&gt;MainModule -->
<g id="edge1" class="edge">
<title>MainComponent&#45;&gt;MainModule</title>
<path fill="none" stroke="black" d="M329,-84.91C329,-104.14 329,-131.8 329,-131.8 329,-131.8 237.6,-131.8 237.6,-131.8"/>
<polygon fill="black" stroke="black" points="237.6,-128.3 227.6,-131.8 237.6,-135.3 237.6,-128.3"/>
</g>
<!-- MainRoutingModule -->
<g id="node3" class="node">
<title>MainRoutingModule</title>
<polygon fill="#8dd3c7" stroke="black" points="250.22,-84.8 247.22,-88.8 226.22,-88.8 223.22,-84.8 115.78,-84.8 115.78,-48.8 250.22,-48.8 250.22,-84.8"/>
<text text-anchor="middle" x="183" y="-62.6" font-family="Times,serif" font-size="14.00">MainRoutingModule</text>
</g>
<!-- MainRoutingModule&#45;&gt;MainModule -->
<g id="edge2" class="edge">
<title>MainRoutingModule&#45;&gt;MainModule</title>
<path fill="none" stroke="black" d="M183,-84.91C183,-84.91 183,-103.79 183,-103.79"/>
<polygon fill="black" stroke="black" points="179.5,-103.79 183,-113.79 186.5,-103.79 179.5,-103.79"/>
</g>
<!-- UiModule -->
<g id="node4" class="node">
<title>UiModule</title>
<polygon fill="#8dd3c7" stroke="black" points="97.55,-84.8 94.55,-88.8 73.55,-88.8 70.55,-84.8 24.45,-84.8 24.45,-48.8 97.55,-48.8 97.55,-84.8"/>
<text text-anchor="middle" x="61" y="-62.6" font-family="Times,serif" font-size="14.00">UiModule</text>
</g>
<!-- UiModule&#45;&gt;MainModule -->
<g id="edge3" class="edge">
<title>UiModule&#45;&gt;MainModule</title>
<path fill="none" stroke="black" d="M61,-84.91C61,-104.14 61,-131.8 61,-131.8 61,-131.8 128.26,-131.8 128.26,-131.8"/>
<polygon fill="black" stroke="black" points="128.26,-135.3 138.26,-131.8 128.26,-128.3 128.26,-135.3"/>
</g>
</g>
</svg>
